<?xml version="1.0" standalone="no"?>
<!DOCTYPE svg PUBLIC "-//W3C//DTD SVG 20010904//EN"
 "http://www.w3.org/TR/2001/REC-SVG-20010904/DTD/svg10.dtd">
<svg version="1.0" xmlns="http://www.w3.org/2000/svg"
 width="700.000000pt" height="700.000000pt" viewBox="0 0 700.000000 700.000000"
 preserveAspectRatio="xMidYMid meet">
<metadata>
Created by potrace 1.11, written by Peter Selinger 2001-2013
</metadata>
<g transform="translate(0.000000,700.000000) scale(0.100000,-0.100000)"
fill="#000000" stroke="none">
<path d="M19 6983 c-1 -30 2 -3764 4 -5418 l2 -1560 90 1 c80 0 207 10 268 19
12 2 49 6 82 10 64 7 103 12 163 20 20 3 69 10 107 16 39 5 111 16 160 25 50
9 105 17 122 20 18 2 53 8 78 14 25 6 62 13 82 16 47 8 191 36 318 64 55 12
111 24 125 26 14 3 144 34 290 70 403 100 817 214 1260 349 102 31 192 58 200
60 8 2 58 17 110 33 52 17 118 37 145 45 28 8 232 71 455 140 223 69 474 146
559 172 289 87 776 352 1446 787 165 106 318 205 340 218 79 48 128 96 207
206 45 64 168 267 168 280 0 1 13 31 29 66 39 87 92 233 106 294 48 209 59
284 59 409 1 280 -58 534 -184 792 -60 123 -179 310 -225 353 -28 27 -1051
703 -1089 720 -6 3 -38 23 -71 44 -213 139 -619 368 -870 490 -377 185 -618
276 -1175 447 -397 123 -654 196 -1070 308 -274 73 -949 237 -1115 271 -48 9
-194 41 -215 46 -100 24 -636 127 -700 134 -47 5 -110 14 -139 20 -83 16 -121
13 -122 -7z"/>
</g>
</svg>
