<svg xmlns="http://www.w3.org/2000/svg" viewBox="0 0 19.97 20.04"><defs><style>.cls-1{fill:#ed8400;}.cls-2{fill:#8c6a5e;}.cls-3{fill:#6b6b6b;}</style></defs><g id="Ebene_2" data-name="Ebene 2"><g id="OBJECTS"><rect class="cls-1" width="19.97" height="20.04"/><path class="cls-2" d="M5.32,2c-1,.34-1.63,1.16-1.12,1.72S4.48,5.25,5.27,5A1.07,1.07,0,0,0,6.2,4C6.25,3.53,5.6,1.86,5.32,2Z"/><path class="cls-3" d="M16.11,14.74c.14.56.7.84.93.65s1.26-1.49.51-2-1-.09-1.16,0A5,5,0,0,0,16.11,14.74Z"/><path class="cls-3" d="M3.92,13.9c.52-.93,2.7-.88,2.84-.69a.93.93,0,0,1,.19,1c-.19.47.46.89-.65.75s-1.12,0-1.49-.28a5.57,5.57,0,0,1-.7-.61Z"/><path class="cls-3" d="M12.48,6.51a1.09,1.09,0,0,0,1.07,1.11c.33,0,2.14.1,1.91-.55a1.3,1.3,0,0,0-1.35-.93A6,6,0,0,0,12.48,6.51Z"/></g></g></svg>