<svg xmlns="http://www.w3.org/2000/svg" height="80" width="80" viewBox="0 0 80 80"><defs><style>.cls-1{fill:#ed8400;}.cls-2{fill:#8c6a5e;}.cls-3{fill:#6b6b6b;}</style></defs><g id="Ebene_2" data-name="Ebene 2"><g id="OBJECTS"><rect class="cls-1" width="80" height="80"/><path class="cls-2" d="M8.73,7.56C7.7,7.9,7.1,8.72,7.61,9.28s.28,1.58,1.07,1.35.89-.65.93-1.07S9,7.46,8.73,7.56Z"/><path class="cls-3" d="M62.22,68.91c.14.55.7.83.93.65s1.25-1.49.51-2-1-.09-1.16,0A5.15,5.15,0,0,0,62.22,68.91Z"/><path class="cls-3" d="M43.52,54.49c.51-.93,2.7-.89,2.84-.7a.93.93,0,0,1,.18,1c-.18.46.47.88-.65.74s-1.11,0-1.49-.28a4.79,4.79,0,0,1-.69-.6Z"/><path class="cls-3" d="M11.19,68.77c.55,1.28-1,2.78-1.33,2.69a1.66,1.66,0,0,1-1.09-.82c-.32-.59-1.19-.54-.27-1.19s.84-.75,1.33-.78a5.6,5.6,0,0,1,1.09.1Z"/><path class="cls-3" d="M57.1,12.58a1.11,1.11,0,0,0,1.07,1.12c.33,0,2.14.09,1.91-.56a1.3,1.3,0,0,0-1.35-.93A6,6,0,0,0,57.1,12.58Z"/><path class="cls-2" d="M27.83,26.44s-1.91.39-1.61-.12.65-2.21.91-2.08,2.13.75,1.93,1.16A4.93,4.93,0,0,1,27.83,26.44Z"/><path class="cls-2" d="M65,36.72s-.74-1.29-.17-1.2,2.35-.07,2.26.15-.37,1.74-.82,1.69A4.09,4.09,0,0,1,65,36.72Z"/><path class="cls-3" d="M19,46.3s-.28,1.3.23,1.77,1.26,1.53,2.23,1.21,1.54-.56,1.31-1.21,0-.7-.42-.89.09-.41-.65-.32-1,.14-1.17.14S19.66,45.18,19,46.3Z"/></g></g></svg>