<?xml version="1.0" encoding="UTF-8" standalone="no"?>
<svg
   xmlns:dc="http://purl.org/dc/elements/1.1/"
   xmlns:cc="http://creativecommons.org/ns#"
   xmlns:rdf="http://www.w3.org/1999/02/22-rdf-syntax-ns#"
   xmlns:svg="http://www.w3.org/2000/svg"
   xmlns="http://www.w3.org/2000/svg"
   xmlns:sodipodi="http://sodipodi.sourceforge.net/DTD/sodipodi-0.dtd"
   xmlns:inkscape="http://www.inkscape.org/namespaces/inkscape"
   viewBox="0 0 19.96 19.9"
   version="1.1"
   id="svg270"
   height="20"
   width="20"
   sodipodi:docname="kopf-oben.svg"
   inkscape:version="1.0.1 (3bc2e813f5, 2020-09-07)">
  <metadata
     id="metadata274">
    <rdf:RDF>
      <cc:Work
         rdf:about="">
        <dc:format>image/svg+xml</dc:format>
        <dc:type
           rdf:resource="http://purl.org/dc/dcmitype/StillImage" />
      </cc:Work>
    </rdf:RDF>
  </metadata>
  <sodipodi:namedview
     pagecolor="#ffffff"
     bordercolor="#666666"
     borderopacity="1"
     objecttolerance="10"
     gridtolerance="10"
     guidetolerance="10"
     inkscape:pageopacity="0"
     inkscape:pageshadow="2"
     inkscape:window-width="1848"
     inkscape:window-height="1016"
     id="namedview272"
     showgrid="false"
     inkscape:zoom="36.934674"
     inkscape:cx="9.9799995"
     inkscape:cy="6.267823"
     inkscape:window-x="72"
     inkscape:window-y="27"
     inkscape:window-maximized="1"
     inkscape:current-layer="svg270"
     inkscape:document-rotation="0" />
  <defs
     id="defs256">
    <style
       id="style254">.cls-1{fill:#0b6304;}.cls-2{fill:#1a232b;}</style>
  </defs>
  <g
     id="Ebene_2"
     data-name="Ebene 2">
    <g
       id="OBJECTS">
      <path
         class="cls-1"
         d="M20,19.88c-.3-4.56-2-9.21-3.29-13.57A28.61,28.61,0,0,0,14.85,3c-.36-.54-.71-1.09-1.06-1.64A5.67,5.67,0,0,0,10.53,0,5.22,5.22,0,0,0,7.09,1.19C5.49,3.66,3.72,6.06,2.73,8.88A76.91,76.91,0,0,0,.11,19.07c0,.25-.1.58-.11.83Z"
         id="path258" />
      <path
         class="cls-2"
         d="M17.22,14.33a5.83,5.83,0,0,0-1.68-3,.6.6,0,0,0-1,.26,4.41,4.41,0,0,0-.08,1.08,3.36,3.36,0,0,0,.07,1.39c.21.81.79,2.06,1.72,2.2C17.45,16.47,17.38,15.08,17.22,14.33Z"
         id="path260" />
      <path
         class="cls-2"
         d="M5.35,11.42a.56.56,0,0,0-.84-.48,2.35,2.35,0,0,0-.81,1.18,4.59,4.59,0,0,0-.55,1.47c-.14.66-.36,1.85.33,2.28C5.13,16.91,5.4,12.2,5.35,11.42Z"
         id="path262" />
      <path
         class="cls-2"
         d="M12,1.57a.4.4,0,0,0-.47.27l0,0a.33.33,0,0,0,0,.31.88.88,0,0,0,.32.68.38.38,0,0,0,.61-.16C12.56,2.24,12.49,1.7,12,1.57Z"
         id="path264" />
      <path
         class="cls-2"
         d="M8.93,1.72c-.54-.52-1,.52-1,1A.39.39,0,0,0,8.12,3a.35.35,0,0,0,.34.11C8.91,2.89,9.38,2.15,8.93,1.72Z"
         id="path266" />
    </g>
  </g>
  <path
     style="fill:#ffffff;stroke-width:0.0270748"
     d="M 3.7257139,16.031237 C 3.5780825,15.984818 3.4159207,15.878545 3.3118436,15.760008 2.9949437,15.399079 2.9445383,14.799742 3.1451259,13.777682 c 0.1054344,-0.537224 0.2273985,-0.91259 0.4299543,-1.32326 0.088137,-0.178694 0.1847158,-0.389881 0.2146186,-0.469304 0.029903,-0.07942 0.1055357,-0.230532 0.168073,-0.335798 0.1214543,-0.204437 0.4766148,-0.59638 0.5966696,-0.658462 0.261396,-0.135173 0.5928282,-0.02692 0.7347914,0.239996 0.056437,0.106112 0.060063,0.144339 0.055706,0.587309 -0.010151,1.032105 -0.1891141,2.304813 -0.4285104,3.047375 -0.2978986,0.924025 -0.7017889,1.31943 -1.1907145,1.165699 z"
     id="path68"
     transform="matrix(0.998,0,0,0.998,0,-0.03)" />
  <path
     style="fill:#ffffff;stroke-width:0.0270748"
     d="m 16.274897,16.31092 c -0.214862,-0.03685 -0.516728,-0.19486 -0.704653,-0.368846 -0.442384,-0.40957 -0.826632,-1.132843 -1.014899,-1.910354 -0.09058,-0.374069 -0.105275,-0.655399 -0.07109,-1.3607 0.03303,-0.681418 0.07135,-0.98718 0.141158,-1.126169 0.09583,-0.190801 0.308323,-0.321769 0.52274,-0.322183 0.19062,-3.69e-4 0.296079,0.05937 0.546474,0.309568 0.710965,0.7104 1.232269,1.629976 1.485853,2.621032 0.283371,1.107477 0.148016,1.911417 -0.357481,2.12324 -0.119168,0.04994 -0.366897,0.06549 -0.5481,0.03441 z"
     id="path70"
     transform="matrix(0.998,0,0,0.998,0,-0.03)" />
  <path
     style="fill:#ffe680;stroke-width:0.0270748"
     d="m 11.923437,2.8858724 c -0.09699,-0.060927 -0.235678,-0.2389246 -0.293663,-0.3769 -0.02085,-0.049616 -0.05274,-0.1927537 -0.07086,-0.3180835 -0.03117,-0.2155961 -0.02975,-0.2344526 0.02639,-0.3500159 0.08212,-0.1690363 0.196013,-0.2358759 0.37887,-0.222353 0.387581,0.028663 0.628129,0.4880438 0.522355,0.997555 -0.04323,0.2082224 -0.140342,0.2997484 -0.333181,0.3140053 -0.109483,0.00809 -0.163054,-0.00221 -0.229917,-0.044208 z"
     id="path90"
     transform="matrix(0.998,0,0,0.998,0,-0.03)" />
  <path
     style="fill:#ffe680;stroke-width:0.0270748"
     d="M 8.3103669,3.1274803 C 8.2111957,3.0979117 8.0484971,2.9664515 8.0016592,2.8780451 7.841179,2.5751392 8.2565233,1.6805568 8.5796587,1.6331306 8.6885113,1.6171544 8.8411098,1.6685073 8.929283,1.7507872 9.2125381,2.0151101 9.1570928,2.4922001 8.7991328,2.87069 8.5873672,3.0946009 8.4471569,3.1682653 8.3103669,3.1274803 Z"
     id="path92"
     transform="matrix(0.998,0,0,0.998,0,-0.03)" />
</svg>
