<?xml version="1.0" encoding="UTF-8" standalone="no"?>
<svg
   xmlns:dc="http://purl.org/dc/elements/1.1/"
   xmlns:cc="http://creativecommons.org/ns#"
   xmlns:rdf="http://www.w3.org/1999/02/22-rdf-syntax-ns#"
   xmlns:svg="http://www.w3.org/2000/svg"
   xmlns="http://www.w3.org/2000/svg"
   xmlns:sodipodi="http://sodipodi.sourceforge.net/DTD/sodipodi-0.dtd"
   xmlns:inkscape="http://www.inkscape.org/namespaces/inkscape"
   viewBox="0 0 19.96 19.9"
   version="1.1"
   id="svg270"
   height="20"
   width="20"
   sodipodi:docname="kopf-rechts.svg"
   inkscape:version="1.0.1 (3bc2e813f5, 2020-09-07)">
  <metadata
     id="metadata274">
    <rdf:RDF>
      <cc:Work
         rdf:about="">
        <dc:format>image/svg+xml</dc:format>
        <dc:type
           rdf:resource="http://purl.org/dc/dcmitype/StillImage" />
        <dc:title />
      </cc:Work>
    </rdf:RDF>
  </metadata>
  <sodipodi:namedview
     pagecolor="#ffffff"
     bordercolor="#666666"
     borderopacity="1"
     objecttolerance="10"
     gridtolerance="10"
     guidetolerance="10"
     inkscape:pageopacity="0"
     inkscape:pageshadow="2"
     inkscape:window-width="1514"
     inkscape:window-height="752"
     id="namedview272"
     showgrid="false"
     inkscape:zoom="36.934674"
     inkscape:cx="9.9799995"
     inkscape:cy="9.9499998"
     inkscape:window-x="200"
     inkscape:window-y="237"
     inkscape:window-maximized="0"
     inkscape:current-layer="svg270"
     inkscape:document-rotation="0" />
  <defs
     id="defs256">
    <style
       id="style254">.cls-1{fill:#0b6304;}.cls-2{fill:#1a232b;}</style>
  </defs>
  <g
     id="Ebene_2"
     data-name="Ebene 2"
     transform="rotate(90,10,9.9493039)">
    <g
       id="OBJECTS">
      <path
         class="cls-1"
         d="M 20,19.88 C 19.7,15.32 18,10.67 16.71,6.31 A 28.61,28.61 0 0 0 14.85,3 C 14.49,2.46 14.14,1.91 13.79,1.36 A 5.67,5.67 0 0 0 10.53,0 5.22,5.22 0 0 0 7.09,1.19 C 5.49,3.66 3.72,6.06 2.73,8.88 A 76.91,76.91 0 0 0 0.11,19.07 c 0,0.25 -0.1,0.58 -0.11,0.83 z"
         id="path258" />
      <path
         class="cls-2"
         d="m 17.22,14.33 a 5.83,5.83 0 0 0 -1.68,-3 0.6,0.6 0 0 0 -1,0.26 4.41,4.41 0 0 0 -0.08,1.08 3.36,3.36 0 0 0 0.07,1.39 c 0.21,0.81 0.79,2.06 1.72,2.2 1.2,0.21 1.13,-1.18 0.97,-1.93 z"
         id="path260" />
      <path
         class="cls-2"
         d="M 5.35,11.42 A 0.56,0.56 0 0 0 4.51,10.94 2.35,2.35 0 0 0 3.7,12.12 4.59,4.59 0 0 0 3.15,13.59 c -0.14,0.66 -0.36,1.85 0.33,2.28 1.65,1.04 1.92,-3.67 1.87,-4.45 z"
         id="path262" />
      <path
         class="cls-2"
         d="m 12,1.57 a 0.4,0.4 0 0 0 -0.47,0.27 v 0 a 0.33,0.33 0 0 0 0,0.31 0.88,0.88 0 0 0 0.32,0.68 0.38,0.38 0 0 0 0.61,-0.16 C 12.56,2.24 12.49,1.7 12,1.57 Z"
         id="path264" />
      <path
         class="cls-2"
         d="m 8.93,1.72 c -0.54,-0.52 -1,0.52 -1,1 A 0.39,0.39 0 0 0 8.12,3 0.35,0.35 0 0 0 8.46,3.11 C 8.91,2.89 9.38,2.15 8.93,1.72 Z"
         id="path266" />
    </g>
  </g>
  <path
     style="fill:#ffffff;stroke-width:0.0270748"
     d="M 7.5432648,5.3020124 C 6.1867456,5.1881687 5.2395491,4.9876413 4.6181347,4.6827441 4.0295688,4.393964 3.8308915,4.0266285 4.0330363,3.6009523 4.3139495,3.0094054 4.9733155,2.8694742 6.2623931,3.1278363 6.7825453,3.2320873 7.1182044,3.3403375 7.51619,3.5321859 7.6948839,3.6183251 7.9351467,3.7278938 8.0501073,3.775672 8.3383854,3.8954818 8.5620257,4.0460055 8.8098619,4.2870344 8.9853558,4.457708 9.0275021,4.5158735 9.0622251,4.6353169 9.0998507,4.7647438 9.0997889,4.7928828 9.0615915,4.924273 9.0171528,5.0771368 8.8705602,5.2414204 8.7313779,5.2943374 c -0.062125,0.02362 -0.9312168,0.029235 -1.1881131,0.00767 z"
     id="path91"
     transform="matrix(0.998,0,0,0.998,0,-0.03)" />
  <path
     style="fill:#ffffff;stroke-width:0.0270748"
     d="M 4.4960091,17.287518 C 3.9327144,17.197501 3.6498231,16.879251 3.69557,16.387032 3.7472848,15.830601 4.0936747,15.39643 4.8097446,14.990507 5.3137823,14.70478 6.0140535,14.482522 6.5008839,14.453758 c 0.3047732,-0.01801 1.4219966,0.03127 1.6921769,0.07464 0.232739,0.03736 0.3625214,0.100929 0.4684776,0.229473 0.1656011,0.200903 0.1781871,0.473272 0.032064,0.693878 -0.08401,0.126832 -0.4123619,0.43621 -0.7036026,0.662945 -0.8876683,0.691063 -2.0512646,1.147605 -3.0188435,1.184458 -0.1786938,0.0068 -0.3925099,0.0016 -0.4751469,-0.01164 z"
     id="path93"
     transform="matrix(0.998,0,0,0.998,0,-0.03)" />
  <path
     style="fill:#ffffff;stroke-width:0.0270748"
     d="m 17.387094,12.467321 c -0.222655,-0.04687 -0.356727,-0.255036 -0.298973,-0.464205 0.03295,-0.119339 0.225722,-0.303888 0.396196,-0.379296 0.119989,-0.05308 0.422647,-0.112494 0.544253,-0.106847 0.09483,0.0044 0.26347,0.100614 0.315473,0.179981 0.119702,0.182688 0.06549,0.427921 -0.133274,0.602881 -0.06474,0.05699 -0.164337,0.118643 -0.221318,0.137007 -0.140534,0.04529 -0.456123,0.06126 -0.602357,0.03048 z"
     id="path95"
     transform="matrix(0.998,0,0,0.998,0,-0.03)" />
  <path
     style="fill:#ffe680;stroke-width:0.0270748"
     d="M 17.601564,9.0582869 C 17.456941,9.0141352 17.287977,8.9093351 17.146483,8.7760235 16.825452,8.4735555 16.801368,8.32605 17.033488,8.0839537 c 0.121536,-0.1267598 0.141678,-0.1374913 0.258049,-0.1374913 0.375228,0 0.928376,0.2703613 1.055295,0.5157947 0.04511,0.087236 0.05146,0.2083694 0.01584,0.3020689 -0.03336,0.087733 -0.188637,0.237029 -0.293196,0.2818947 -0.09257,0.03972 -0.355149,0.046491 -0.46791,0.012066 z"
     id="path97"
     transform="matrix(0.998,0,0,0.998,0,-0.03)" />
  <path
     style="fill:#ffe680;stroke-width:0.0270748"
     d="m 17.317339,12.425305 c -0.124829,-0.06509 -0.173794,-0.119529 -0.206906,-0.230049 -0.03903,-0.130279 -0.01603,-0.217265 0.08911,-0.337019 0.16264,-0.185237 0.466748,-0.311425 0.767489,-0.318466 0.33646,-0.0079 0.522675,0.298075 0.35818,0.588493 -0.08259,0.145816 -0.259136,0.274342 -0.425997,0.310127 -0.201962,0.04331 -0.485963,0.03693 -0.581879,-0.01309 z"
     id="path99"
     transform="matrix(0.998,0,0,0.998,0,-0.03)" />
</svg>
