<?xml version="1.0" encoding="UTF-8" standalone="no"?>
<svg
   xmlns:dc="http://purl.org/dc/elements/1.1/"
   xmlns:cc="http://creativecommons.org/ns#"
   xmlns:rdf="http://www.w3.org/1999/02/22-rdf-syntax-ns#"
   xmlns:svg="http://www.w3.org/2000/svg"
   xmlns="http://www.w3.org/2000/svg"
   xmlns:sodipodi="http://sodipodi.sourceforge.net/DTD/sodipodi-0.dtd"
   xmlns:inkscape="http://www.inkscape.org/namespaces/inkscape"
   viewBox="0 0 19.96 19.9"
   version="1.1"
   id="svg270"
   height="20"
   width="20"
   sodipodi:docname="kopf-unten.svg"
   inkscape:version="1.0.1 (3bc2e813f5, 2020-09-07)">
  <metadata
     id="metadata274">
    <rdf:RDF>
      <cc:Work
         rdf:about="">
        <dc:format>image/svg+xml</dc:format>
        <dc:type
           rdf:resource="http://purl.org/dc/dcmitype/StillImage" />
        <dc:title />
      </cc:Work>
    </rdf:RDF>
  </metadata>
  <sodipodi:namedview
     pagecolor="#ffffff"
     bordercolor="#666666"
     borderopacity="1"
     objecttolerance="10"
     gridtolerance="10"
     guidetolerance="10"
     inkscape:pageopacity="0"
     inkscape:pageshadow="2"
     inkscape:window-width="1514"
     inkscape:window-height="752"
     id="namedview272"
     showgrid="false"
     inkscape:zoom="36.934674"
     inkscape:cx="9.9799995"
     inkscape:cy="9.9499998"
     inkscape:window-x="277"
     inkscape:window-y="187"
     inkscape:window-maximized="0"
     inkscape:current-layer="svg270"
     inkscape:document-rotation="0" />
  <defs
     id="defs256">
    <style
       id="style254">.cls-1{fill:#0b6304;}.cls-2{fill:#1a232b;}</style>
  </defs>
  <g
     id="Ebene_2"
     data-name="Ebene 2"
     transform="rotate(180,10,9.9493039)">
    <g
       id="OBJECTS">
      <path
         class="cls-1"
         d="M 20,19.88 C 19.7,15.32 18,10.67 16.71,6.31 A 28.61,28.61 0 0 0 14.85,3 C 14.49,2.46 14.14,1.91 13.79,1.36 A 5.67,5.67 0 0 0 10.53,0 5.22,5.22 0 0 0 7.09,1.19 C 5.49,3.66 3.72,6.06 2.73,8.88 A 76.91,76.91 0 0 0 0.11,19.07 c 0,0.25 -0.1,0.58 -0.11,0.83 z"
         id="path258" />
      <path
         class="cls-2"
         d="m 17.22,14.33 a 5.83,5.83 0 0 0 -1.68,-3 0.6,0.6 0 0 0 -1,0.26 4.41,4.41 0 0 0 -0.08,1.08 3.36,3.36 0 0 0 0.07,1.39 c 0.21,0.81 0.79,2.06 1.72,2.2 1.2,0.21 1.13,-1.18 0.97,-1.93 z"
         id="path260" />
      <path
         class="cls-2"
         d="M 5.35,11.42 A 0.56,0.56 0 0 0 4.51,10.94 2.35,2.35 0 0 0 3.7,12.12 4.59,4.59 0 0 0 3.15,13.59 c -0.14,0.66 -0.36,1.85 0.33,2.28 1.65,1.04 1.92,-3.67 1.87,-4.45 z"
         id="path262" />
      <path
         class="cls-2"
         d="m 12,1.57 a 0.4,0.4 0 0 0 -0.47,0.27 v 0 a 0.33,0.33 0 0 0 0,0.31 0.88,0.88 0 0 0 0.32,0.68 0.38,0.38 0 0 0 0.61,-0.16 C 12.56,2.24 12.49,1.7 12,1.57 Z"
         id="path264" />
      <path
         class="cls-2"
         d="m 8.93,1.72 c -0.54,-0.52 -1,0.52 -1,1 A 0.39,0.39 0 0 0 8.12,3 0.35,0.35 0 0 0 8.46,3.11 C 8.91,2.89 9.38,2.15 8.93,1.72 Z"
         id="path266" />
    </g>
  </g>
  <path
     style="fill:#ffe680;stroke-width:0.0270748"
     d="m 7.9223125,18.346834 c -0.1585496,-0.07221 -0.3010553,-0.24414 -0.3543726,-0.427545 -0.061879,-0.212855 -0.04124,-0.563374 0.041006,-0.696452 0.08076,-0.130672 0.2601278,-0.199698 0.4056394,-0.156101 0.1237839,0.03709 0.3100226,0.228169 0.3818408,0.391773 0.060991,0.13894 0.1223613,0.525939 0.098487,0.621061 -0.039361,0.156827 -0.2447831,0.3187 -0.4025137,0.317182 -0.033983,-3.27e-4 -0.1105227,-0.02279 -0.1700873,-0.04992 z"
     id="path252"
     transform="matrix(0.998,0,0,0.998,0,-0.03)" />
  <path
     style="fill:#ffffff;stroke-width:0.0270748"
     d="m 11.19197,18.302593 c -0.125825,-0.07714 -0.236794,-0.243177 -0.264736,-0.3961 -0.02244,-0.122795 0.04393,-0.3924 0.134751,-0.547366 0.153743,-0.262342 0.433964,-0.505046 0.583117,-0.505046 0.09317,0 0.316584,0.14841 0.384101,0.255156 0.10073,0.159259 0.01341,0.571883 -0.193417,0.914025 -0.196707,0.325393 -0.414537,0.419902 -0.643816,0.279331 z"
     id="path254"
     transform="matrix(0.998,0,0,0.998,0,-0.03)" />
  <path
     style="fill:#ffffff;stroke-width:0.0270748"
     d="M 4.7543821,8.7618734 C 4.6100841,8.7150278 4.5171826,8.6468772 4.3190803,8.4425459 4.0364446,8.151023 3.8998467,7.9821121 3.6661028,7.6351019 3.0760322,6.7590985 2.7239791,5.7202046 2.7208297,4.8456411 2.7180942,4.0859783 2.9534508,3.7109705 3.4555784,3.6749225 4.2388389,3.6186917 4.9700268,4.3474137 5.3785028,5.5913618 5.5714968,6.1790938 5.5925266,6.4233912 5.5416146,7.4861903 5.5058116,8.2335864 5.467151,8.4314268 5.3281751,8.5784317 5.1851639,8.7297053 4.9181957,8.8150552 4.7543821,8.7618734 Z"
     id="path364"
     transform="matrix(0.998,0,0,0.998,0,-0.03)" />
  <path
     style="fill:#ffe680;stroke-width:0.0270748;fill-opacity:1"
     d="m 14.976432,8.9949368 c -0.05895,-0.033386 -0.144231,-0.1134121 -0.189524,-0.177835 -0.08,-0.1137904 -0.08263,-0.1272929 -0.092,-0.4732169 -0.02198,-0.8109986 0.132586,-2.1119083 0.348005,-2.928919 0.197239,-0.7480636 0.490404,-1.2721416 0.793778,-1.4190022 0.338171,-0.1637061 0.806333,0.033392 1.016668,0.4280216 0.210195,0.3943654 0.218068,0.9097978 0.02837,1.8573751 -0.101291,0.5059682 -0.221147,0.8678517 -0.416332,1.2570397 -0.08335,0.1661983 -0.176835,0.3697642 -0.207742,0.4523689 -0.155701,0.4161502 -0.573088,0.9440222 -0.820947,1.0382577 -0.126968,0.048273 -0.343123,0.032264 -0.460273,-0.03409 z"
     id="path366"
     transform="matrix(0.998,0,0,0.998,0,-0.03)" />
  <path
     style="fill:#ffe680;fill-opacity:1;stroke-width:0.0270748"
     d="m 7.9349302,18.332366 c -0.1164911,-0.05075 -0.2555216,-0.1981 -0.3215917,-0.340838 -0.075733,-0.163613 -0.079836,-0.589933 -0.00699,-0.725753 0.070908,-0.132199 0.195672,-0.200664 0.3390455,-0.186054 0.096312,0.0098 0.1418065,0.03561 0.2489496,0.141139 0.1566896,0.154333 0.22663,0.306666 0.2682645,0.584288 0.039255,0.261757 0.023217,0.321331 -0.1227283,0.455858 -0.1304977,0.120289 -0.2459453,0.140633 -0.4049545,0.07136 z"
     id="path368"
     transform="matrix(0.998,0,0,0.998,0,-0.03)" />
  <path
     style="fill:#ffffff;fill-opacity:1;stroke-width:0.0270748"
     d="m 11.209503,18.292 c -0.108381,-0.06609 -0.186423,-0.166923 -0.242169,-0.312893 -0.05281,-0.138286 -0.02675,-0.317387 0.07901,-0.542917 0.123586,-0.26355 0.438032,-0.555034 0.598758,-0.555034 0.08567,0 0.249436,0.09853 0.34219,0.205866 0.112491,0.13018 0.083,0.398924 -0.08292,0.755749 -0.202848,0.43623 -0.452019,0.597318 -0.694869,0.449229 z"
     id="path370"
     transform="matrix(0.998,0,0,0.998,0,-0.03)" />
  <path
     style="fill:#ffffff;fill-opacity:1;stroke-width:0.0270748"
     d="M 15.132043,9.0270124 C 14.985077,8.999366 14.865565,8.9101368 14.779643,8.7639065 l -0.06853,-0.1166376 0.01451,-0.6685325 c 0.03723,-1.7157194 0.40769,-3.2661163 0.909157,-3.8048594 0.206645,-0.2220049 0.488484,-0.2746096 0.773117,-0.1443005 0.273554,0.1252373 0.455062,0.3670748 0.548116,0.7302992 0.08383,0.327239 0.01339,1.1460617 -0.156527,1.8193078 -0.0811,0.3213577 -0.177912,0.5890257 -0.32804,0.9070068 -0.07382,0.1563572 -0.175777,0.3800746 -0.226571,0.4971497 -0.119706,0.2759163 -0.342998,0.6168824 -0.528233,0.8066114 -0.216797,0.2220572 -0.358622,0.2795693 -0.584592,0.237061 z"
     id="path372"
     transform="matrix(0.998,0,0,0.998,0,-0.03)" />
  <path
     style="fill:#ffe680;fill-opacity:1;stroke-width:0.0270748"
     d="m 11.209503,18.292 c -0.108381,-0.06609 -0.186423,-0.166923 -0.242169,-0.312893 -0.053,-0.138782 -0.0269,-0.316017 0.08073,-0.548185 0.118714,-0.256082 0.436604,-0.549766 0.595077,-0.549766 0.144467,0 0.383639,0.198606 0.410297,0.340706 0.02418,0.128907 -0.03509,0.375807 -0.149064,0.620909 -0.202848,0.43623 -0.452019,0.597318 -0.694869,0.449229 z"
     id="path374"
     transform="matrix(0.998,0,0,0.998,0,-0.03)" />
</svg>
