<?xml version="1.0" encoding="UTF-8" standalone="no"?>
<svg
   xmlns:dc="http://purl.org/dc/elements/1.1/"
   xmlns:cc="http://creativecommons.org/ns#"
   xmlns:rdf="http://www.w3.org/1999/02/22-rdf-syntax-ns#"
   xmlns:svg="http://www.w3.org/2000/svg"
   xmlns="http://www.w3.org/2000/svg"
   xmlns:sodipodi="http://sodipodi.sourceforge.net/DTD/sodipodi-0.dtd"
   xmlns:inkscape="http://www.inkscape.org/namespaces/inkscape"
   viewBox="0 0 19.96 19.9"
   version="1.1"
   id="svg270"
   sodipodi:docname="kopf.svg"
   inkscape:version="1.0.1 (c497b03c, 2020-09-10)">
  <metadata
     id="metadata274">
    <rdf:RDF>
      <cc:Work
         rdf:about="">
        <dc:format>image/svg+xml</dc:format>
        <dc:type
           rdf:resource="http://purl.org/dc/dcmitype/StillImage" />
      </cc:Work>
    </rdf:RDF>
  </metadata>
  <sodipodi:namedview
     pagecolor="#ffffff"
     bordercolor="#666666"
     borderopacity="1"
     objecttolerance="10"
     gridtolerance="10"
     guidetolerance="10"
     inkscape:pageopacity="0"
     inkscape:pageshadow="2"
     inkscape:window-width="1680"
     inkscape:window-height="958"
     id="namedview272"
     showgrid="false"
     inkscape:zoom="36.934674"
     inkscape:cx="9.9799995"
     inkscape:cy="9.9499998"
     inkscape:window-x="0"
     inkscape:window-y="23"
     inkscape:window-maximized="1"
     inkscape:current-layer="svg270" />
  <defs
     id="defs256">
    <style
       id="style254">.cls-1{fill:#0b6304;}.cls-2{fill:#1a232b;}</style>
  </defs>
  <g
     id="Ebene_2"
     data-name="Ebene 2">
    <g
       id="OBJECTS">
      <path
         class="cls-1"
         d="M20,19.88c-.3-4.56-2-9.21-3.29-13.57A28.61,28.61,0,0,0,14.85,3c-.36-.54-.71-1.09-1.06-1.64A5.67,5.67,0,0,0,10.53,0,5.22,5.22,0,0,0,7.09,1.19C5.49,3.66,3.72,6.06,2.73,8.88A76.91,76.91,0,0,0,.11,19.07c0,.25-.1.58-.11.83Z"
         id="path258" />
      <path
         class="cls-2"
         d="M17.22,14.33a5.83,5.83,0,0,0-1.68-3,.6.6,0,0,0-1,.26,4.41,4.41,0,0,0-.08,1.08,3.36,3.36,0,0,0,.07,1.39c.21.81.79,2.06,1.72,2.2C17.45,16.47,17.38,15.08,17.22,14.33Z"
         id="path260" />
      <path
         class="cls-2"
         d="M5.35,11.42a.56.56,0,0,0-.84-.48,2.35,2.35,0,0,0-.81,1.18,4.59,4.59,0,0,0-.55,1.47c-.14.66-.36,1.85.33,2.28C5.13,16.91,5.4,12.2,5.35,11.42Z"
         id="path262" />
      <path
         class="cls-2"
         d="M12,1.57a.4.4,0,0,0-.47.27l0,0a.33.33,0,0,0,0,.31.88.88,0,0,0,.32.68.38.38,0,0,0,.61-.16C12.56,2.24,12.49,1.7,12,1.57Z"
         id="path264" />
      <path
         class="cls-2"
         d="M8.93,1.72c-.54-.52-1,.52-1,1A.39.39,0,0,0,8.12,3a.35.35,0,0,0,.34.11C8.91,2.89,9.38,2.15,8.93,1.72Z"
         id="path266" />
    </g>
  </g>
</svg>
