<?xml version="1.0" encoding="UTF-8" standalone="no"?>
<svg
   xmlns:dc="http://purl.org/dc/elements/1.1/"
   xmlns:cc="http://creativecommons.org/ns#"
   xmlns:rdf="http://www.w3.org/1999/02/22-rdf-syntax-ns#"
   xmlns:svg="http://www.w3.org/2000/svg"
   xmlns="http://www.w3.org/2000/svg"
   xmlns:sodipodi="http://sodipodi.sourceforge.net/DTD/sodipodi-0.dtd"
   xmlns:inkscape="http://www.inkscape.org/namespaces/inkscape"
   viewBox="0 0 19.96 19.9"
   version="1.1"
   id="svg270"
   height="20"
   width="20"
   sodipodi:docname="kopf-links.svg"
   inkscape:version="1.0.1 (3bc2e813f5, 2020-09-07)">
  <metadata
     id="metadata274">
    <rdf:RDF>
      <cc:Work
         rdf:about="">
        <dc:format>image/svg+xml</dc:format>
        <dc:type
           rdf:resource="http://purl.org/dc/dcmitype/StillImage" />
        <dc:title />
      </cc:Work>
    </rdf:RDF>
  </metadata>
  <sodipodi:namedview
     pagecolor="#ffffff"
     bordercolor="#666666"
     borderopacity="1"
     objecttolerance="10"
     gridtolerance="10"
     guidetolerance="10"
     inkscape:pageopacity="0"
     inkscape:pageshadow="2"
     inkscape:window-width="1514"
     inkscape:window-height="752"
     id="namedview272"
     showgrid="false"
     inkscape:zoom="36.934674"
     inkscape:cx="9.9799995"
     inkscape:cy="9.9499998"
     inkscape:window-x="164"
     inkscape:window-y="163"
     inkscape:window-maximized="0"
     inkscape:current-layer="svg270"
     inkscape:document-rotation="0" />
  <defs
     id="defs256">
    <style
       id="style254">.cls-1{fill:#0b6304;}.cls-2{fill:#1a232b;}</style>
  </defs>
  <g
     id="Ebene_2"
     data-name="Ebene 2"
     transform="rotate(-90,10,9.9493039)">
    <g
       id="OBJECTS">
      <path
         class="cls-1"
         d="M 20,19.88 C 19.7,15.32 18,10.67 16.71,6.31 A 28.61,28.61 0 0 0 14.85,3 C 14.49,2.46 14.14,1.91 13.79,1.36 A 5.67,5.67 0 0 0 10.53,0 5.22,5.22 0 0 0 7.09,1.19 C 5.49,3.66 3.72,6.06 2.73,8.88 A 76.91,76.91 0 0 0 0.11,19.07 c 0,0.25 -0.1,0.58 -0.11,0.83 z"
         id="path258" />
      <path
         class="cls-2"
         d="m 17.22,14.33 a 5.83,5.83 0 0 0 -1.68,-3 0.6,0.6 0 0 0 -1,0.26 4.41,4.41 0 0 0 -0.08,1.08 3.36,3.36 0 0 0 0.07,1.39 c 0.21,0.81 0.79,2.06 1.72,2.2 1.2,0.21 1.13,-1.18 0.97,-1.93 z"
         id="path260" />
      <path
         class="cls-2"
         d="M 5.35,11.42 A 0.56,0.56 0 0 0 4.51,10.94 2.35,2.35 0 0 0 3.7,12.12 4.59,4.59 0 0 0 3.15,13.59 c -0.14,0.66 -0.36,1.85 0.33,2.28 1.65,1.04 1.92,-3.67 1.87,-4.45 z"
         id="path262" />
      <path
         class="cls-2"
         d="m 12,1.57 a 0.4,0.4 0 0 0 -0.47,0.27 v 0 a 0.33,0.33 0 0 0 0,0.31 0.88,0.88 0 0 0 0.32,0.68 0.38,0.38 0 0 0 0.61,-0.16 C 12.56,2.24 12.49,1.7 12,1.57 Z"
         id="path264" />
      <path
         class="cls-2"
         d="m 8.93,1.72 c -0.54,-0.52 -1,0.52 -1,1 A 0.39,0.39 0 0 0 8.12,3 0.35,0.35 0 0 0 8.46,3.11 C 8.91,2.89 9.38,2.15 8.93,1.72 Z"
         id="path266" />
    </g>
  </g>
  <path
     style="fill:#ffe680;stroke-width:0.0270748"
     d="M 1.8832832,8.4498757 C 1.7855004,8.4072841 1.661301,8.2673145 1.6376401,8.173042 1.5884553,7.9770742 1.7196218,7.7419606 1.9505438,7.6121676 2.2118103,7.4653189 2.7141359,7.481005 2.862073,7.6406317 3.1356673,7.9358448 2.8480761,8.3415611 2.2894578,8.4484424 c -0.249481,0.047734 -0.299472,0.04791 -0.4061746,0.00143 z"
     id="path248"
     transform="matrix(0.998,0,0,0.998,0,-0.03)" />
  <path
     style="fill:#ffe680;stroke-width:0.0270748"
     d="M 2.4915449,12.020619 C 2.1678579,11.942027 1.8408452,11.754942 1.7223497,11.58056 1.559252,11.340541 1.7104595,11.031675 2.0433064,10.924955 c 0.2990427,-0.09588 0.7831354,0.136648 1.0296579,0.494587 0.088861,0.129023 0.101768,0.16547 0.086818,0.24516 -0.02162,0.115246 -0.1525685,0.286291 -0.2677637,0.349754 -0.1004154,0.05532 -0.1922003,0.05673 -0.4004737,0.0062 z"
     id="path250"
     transform="matrix(0.998,0,0,0.998,0,-0.03)" />
  <path
     style="fill:#ffffff;stroke-width:0.0270748"
     d="m 12.904081,5.5375675 c -0.0819,-0.012366 -0.295116,-0.023736 -0.473809,-0.025265 -0.359778,-0.00308 -0.749018,-0.056505 -0.86934,-0.1193217 -0.189164,-0.098757 -0.308416,-0.2995284 -0.308416,-0.5192454 0,-0.2016788 0.05983,-0.3111036 0.302436,-0.5531716 0.966591,-0.9644322 2.449382,-1.6273503 3.636952,-1.6259884 0.76766,8.804e-4 1.150246,0.2708688 1.150095,0.8116152 -1.09e-4,0.387645 -0.136697,0.6991511 -0.441575,1.0070681 -0.429163,0.4334401 -1.226297,0.8289699 -1.981037,0.98297 -0.252142,0.051448 -0.800491,0.073775 -1.015306,0.041339 z"
     id="path376"
     transform="matrix(0.998,0,0,0.998,0,-0.03)" />
  <path
     style="fill:#ffffff;stroke-width:0.0270748"
     d="m 14.176598,16.94498 c -0.678715,-0.103339 -1.191892,-0.254126 -1.692177,-0.497213 -0.178694,-0.08683 -0.412219,-0.193799 -0.518945,-0.237715 -0.261506,-0.107606 -0.539969,-0.297075 -0.757631,-0.515499 -0.202337,-0.203046 -0.253152,-0.29919 -0.253152,-0.478974 0,-0.192972 0.129106,-0.398356 0.309652,-0.492601 0.116855,-0.061 0.450117,-0.07282 1.030552,-0.03656 1.795604,0.112183 3.06741,0.441977 3.563336,0.924014 0.2765,0.268757 0.303146,0.569096 0.08075,0.91017 -0.148085,0.227108 -0.342515,0.353517 -0.658233,0.427952 -0.215883,0.0509 -0.757899,0.04914 -1.104152,-0.0036 z"
     id="path378"
     transform="matrix(0.998,0,0,0.998,0,-0.03)" />
</svg>
