<?xml version="1.0" encoding="UTF-8" standalone="no"?>
<svg
   xmlns:dc="http://purl.org/dc/elements/1.1/"
   xmlns:cc="http://creativecommons.org/ns#"
   xmlns:rdf="http://www.w3.org/1999/02/22-rdf-syntax-ns#"
   xmlns:svg="http://www.w3.org/2000/svg"
   xmlns="http://www.w3.org/2000/svg"
   xmlns:sodipodi="http://sodipodi.sourceforge.net/DTD/sodipodi-0.dtd"
   xmlns:inkscape="http://www.inkscape.org/namespaces/inkscape"
   viewBox="0 0 19.96 19.9"
   version="1.1"
   id="svg270"
   sodipodi:docname="kopf-rechts.svg"
   inkscape:version="1.0.1 (c497b03c, 2020-09-10)">
  <metadata
     id="metadata274">
    <rdf:RDF>
      <cc:Work
         rdf:about="">
        <dc:format>image/svg+xml</dc:format>
        <dc:type
           rdf:resource="http://purl.org/dc/dcmitype/StillImage" />
        <dc:title></dc:title>
      </cc:Work>
    </rdf:RDF>
  </metadata>
  <sodipodi:namedview
     pagecolor="#ffffff"
     bordercolor="#666666"
     borderopacity="1"
     objecttolerance="10"
     gridtolerance="10"
     guidetolerance="10"
     inkscape:pageopacity="0"
     inkscape:pageshadow="2"
     inkscape:window-width="1680"
     inkscape:window-height="958"
     id="namedview272"
     showgrid="false"
     inkscape:zoom="36.934674"
     inkscape:cx="9.9799995"
     inkscape:cy="9.9499998"
     inkscape:window-x="0"
     inkscape:window-y="23"
     inkscape:window-maximized="1"
     inkscape:current-layer="svg270" />
  <defs
     id="defs256">
    <style
       id="style254">.cls-1{fill:#0b6304;}.cls-2{fill:#1a232b;}</style>
  </defs>
  <g
     id="Ebene_2"
     data-name="Ebene 2"
     transform="rotate(90,10,9.9493039)">
    <g
       id="OBJECTS">
      <path
         class="cls-1"
         d="M 20,19.88 C 19.7,15.32 18,10.67 16.71,6.31 A 28.61,28.61 0 0 0 14.85,3 C 14.49,2.46 14.14,1.91 13.79,1.36 A 5.67,5.67 0 0 0 10.53,0 5.22,5.22 0 0 0 7.09,1.19 C 5.49,3.66 3.72,6.06 2.73,8.88 A 76.91,76.91 0 0 0 0.11,19.07 c 0,0.25 -0.1,0.58 -0.11,0.83 z"
         id="path258" />
      <path
         class="cls-2"
         d="m 17.22,14.33 a 5.83,5.83 0 0 0 -1.68,-3 0.6,0.6 0 0 0 -1,0.26 4.41,4.41 0 0 0 -0.08,1.08 3.36,3.36 0 0 0 0.07,1.39 c 0.21,0.81 0.79,2.06 1.72,2.2 1.2,0.21 1.13,-1.18 0.97,-1.93 z"
         id="path260" />
      <path
         class="cls-2"
         d="M 5.35,11.42 A 0.56,0.56 0 0 0 4.51,10.94 2.35,2.35 0 0 0 3.7,12.12 4.59,4.59 0 0 0 3.15,13.59 c -0.14,0.66 -0.36,1.85 0.33,2.28 1.65,1.04 1.92,-3.67 1.87,-4.45 z"
         id="path262" />
      <path
         class="cls-2"
         d="m 12,1.57 a 0.4,0.4 0 0 0 -0.47,0.27 v 0 a 0.33,0.33 0 0 0 0,0.31 0.88,0.88 0 0 0 0.32,0.68 0.38,0.38 0 0 0 0.61,-0.16 C 12.56,2.24 12.49,1.7 12,1.57 Z"
         id="path264" />
      <path
         class="cls-2"
         d="m 8.93,1.72 c -0.54,-0.52 -1,0.52 -1,1 A 0.39,0.39 0 0 0 8.12,3 0.35,0.35 0 0 0 8.46,3.11 C 8.91,2.89 9.38,2.15 8.93,1.72 Z"
         id="path266" />
    </g>
  </g>
</svg>
