<svg xmlns="http://www.w3.org/2000/svg" xmlns:xlink="http://www.w3.org/1999/xlink" height="20" width="20" viewBox="0 0 19.17 19.44"><defs><style>.cls-1{fill:url(#Unbenannter_Verlauf_91);}</style><linearGradient id="Unbenannter_Verlauf_91" y1="9.72" x2="19.17" y2="9.72" gradientUnits="userSpaceOnUse"><stop offset="0" stop-color="#fff"/><stop offset="0.03" stop-color="#aa1700"/><stop offset="1" stop-color="#942d00"/></linearGradient></defs><g id="Ebene_2" data-name="Ebene 2"><g id="OBJECTS"><path class="cls-1" d="M18.2,0l-.7.7L17,0l-.1,1.27L16,0l.28,1.67a2.82,2.82,0,0,0-1.5,1,6.75,6.75,0,0,0-.9,2.18c-.09.27-.18.54-.28.79l.09,0,2.53.9a.38.38,0,0,1,.24.5.38.38,0,0,1-.09.15.38.38,0,0,1-.41.09L13.4,6.36l-.12-.07a16.53,16.53,0,0,1-1,1.94l-.06.1a.58.58,0,0,1,.17.06l2.45,1.74a.39.39,0,0,1,.09.55l0,.05a.39.39,0,0,1-.51,0L11.92,9a.29.29,0,0,1-.12-.15,17.06,17.06,0,0,1-1.34,1.59c-.24.24-.49.46-.75.68l0,0,1.9,1.89a.4.4,0,0,1,0,.56.39.39,0,0,1-.56,0l-1.9-1.89-.07-.09c-.28.22-.58.44-.87.65a15,15,0,0,1-1.4.76L8,15.53a.38.38,0,0,1-.19.52.4.4,0,0,1-.53-.18L6.11,13.39c-.4.17-.85.35-1.31.5a6.72,6.72,0,0,0-2.17.91,2.74,2.74,0,0,0-1,1.75L0,16.5l1.39.79-1.25.27.77.36-.61.79,1.31,0-.31.75,1.38-.84.25.19c.62.44,1.8.63,3.59.06a15.88,15.88,0,0,0,7.56-4.53l.12-.12h0l.12-.12a15.86,15.86,0,0,0,4.5-7.58c.56-1.79.37-3-.08-3.59a3.16,3.16,0,0,0-.37-.45L19.06.9l-.71.4Z"/></g></g></svg>